<svg xmlns="http://www.w3.org/2000/svg" xmlns:xlink="http://www.w3.org/1999/xlink" viewBox="0 0 227.27 160.06"><defs><style>.cls-1{fill:none;}.cls-2{fill:#fb0;}.cls-3{clip-path:url(#clip-path);}.cls-4{fill:#fff;}</style><clipPath id="clip-path" transform="translate(-19.17 -38.33)"><rect class="cls-1" width="276" height="181"/></clipPath></defs><title>Horkon Logo</title><g id="Calque_2" data-name="Calque 2"><g id="Calque_1-2" data-name="Calque 1"><path class="cls-2" d="M112.4,38.33V93.24h53.21V38.33h32.22V181.22H165.61V121.44H112.4v59.78H80V38.33Z" transform="translate(-19.17 -38.33)"/><g class="cls-3"><path class="cls-4" d="M19.17,182.61a261.09,261.09,0,0,1,47.55-43.78A253.6,253.6,0,0,1,123,108.67a242.64,242.64,0,0,1,30.25-9.42,248.67,248.67,0,0,1,31-5.51,252.22,252.22,0,0,1,62.2.69,249,249,0,0,0-61.14,5.72A239.14,239.14,0,0,0,156,108.6a230.84,230.84,0,0,0-27.78,12,236,236,0,0,0-88.42,77.83Z" transform="translate(-19.17 -38.33)"/></g></g></g></svg>